<svg xmlns="http://www.w3.org/2000/svg" width="80" height="80" viewBox="0 0 80 80">
  <g fill="none" fill-rule="evenodd">
    <rect width="80" height="80" fill="#463191" rx="40"/>
    <path fill="#BF266B" d="M24.0498497,47.5127157 L24.420866,61.3523899 C24.4668152,63.0663926 25.8240207,64.5063998 27.4522439,64.5677926 C29.0808252,64.6291989 30.8065683,64.503556 30.7790976,62.7733927 L30.128906,47.579494 L30.1175268,46.8628134 C30.0900544,45.1325406 31.4374646,43.7369853 33.1278818,43.7457576 C34.8179273,43.754528 36.1952579,45.1765058 36.2042421,46.9230725 L36.2079622,47.6462724 L36.2804597,61.7400423 C36.2894383,63.4855139 37.6166566,64.9510458 39.2448798,65.0124386 C40.7987096,65.0710264 42.8140111,64.8761062 42.9364592,63.2310204 C42.9423499,63.1518788 42.2098201,62.0147273 42.2102565,61.9338685 L42.2870185,47.7130507 L42.2909574,46.9833316 C42.3004671,45.2215801 43.6778573,43.8005061 45.3682744,43.8092785 C47.05832,43.8180489 48.4056824,45.2655352 48.3776727,47.0435907 L48.3660748,47.7798291 L48.1400534,62.1276947 C48.1120613,63.9046353 49.4092925,65.3956919 51.0375157,65.4570847 C52.666097,65.518491 54.5872017,65.3836379 54.6336906,63.590521 L54.4451311,47.8466074 L54.6447901,40.1455812 C54.6641094,39.4004193 54.6990107,38.0542452 54.7506926,36.0608285 L55.0055606,26.2303447 C55.0900769,22.9704755 55.1323421,21.3402703 54.6336902,19.6010643 C53.995526,17.7077922 52.5433698,16.2504771 50.666564,15.6198446 C48.9424411,15.1286569 47.3318821,15.1844414 44.1099617,15.2960383 L34.3947231,15.6325428 C31.1728028,15.7441397 33.1278818,15.0758826 31.019841,15.0758826 C27.2066949,15.6325428 24.5083454,18.6218546 23.8696167,20.4764553 C23.3704479,22.1696231 23.4122327,23.7282859 23.4957887,26.845094 L23.7477604,36.244162 L23.8705129,40.8230847 L24.0498497,47.5127157 Z"/>
    <path fill="#EE4792" d="M25.7031218,46.961625 L26.0741381,60.8012992 C26.1200873,62.5153019 27.4772928,63.9553091 29.105516,64.0167019 C30.7340973,64.0781082 32.0314056,62.7252888 32.0039349,60.9951254 L31.7821781,47.0284033 L31.770799,46.3117227 C31.7433265,44.5814499 33.0907367,43.1858946 34.7811539,43.1946669 C36.4711994,43.2034373 37.84853,44.6254151 37.8575142,46.3719818 L37.8612343,47.0951817 L37.9337318,61.1889516 C37.9427104,62.9344232 39.2699287,64.3999551 40.8981519,64.4613479 C42.5267332,64.5227543 43.8540195,63.144418 43.8635286,61.3827778 L43.9402906,47.16196 L43.9442295,46.4322409 C43.9537392,44.6704894 45.3311294,43.2494154 47.0215465,43.2581878 C48.7115921,43.2669582 50.0589545,44.7144445 50.0309448,46.4925 L50.0193469,47.2287384 L49.7933255,61.576604 C49.7653334,63.3535446 51.0625646,64.8446012 52.6907878,64.905994 C54.3193691,64.9674003 55.6766335,63.5635471 55.7231223,61.7704302 L56.0984032,47.2955167 L56.2980622,39.5944905 C56.3173815,38.8493286 56.3522828,37.5031545 56.4039647,35.5097378 L56.6588327,25.679254 C56.743349,22.4193848 56.7856142,20.7891796 56.2869623,19.0499736 C55.6487981,17.1567015 54.1966419,15.6993864 52.3198361,15.0687539 C50.5957132,14.5775662 48.9851542,14.6333507 45.7632338,14.7449476 L36.0479952,15.0814521 C32.8260749,15.193049 31.2152484,15.2488428 29.4912295,15.842835 C27.6142183,16.5763646 26.1616175,18.0707639 25.5228888,19.9253646 C25.02372,21.6185324 25.0655048,23.1771952 25.1490608,26.2940033 L25.4010325,35.6930713 L25.523785,40.271994 L25.7031218,46.961625 Z"/>
    <path fill="#BF266B" fill-rule="nonzero" d="M25.0239646,40.2853933 L24.9012121,35.7064705 L24.6492403,26.3074026 C24.5432844,22.3550272 24.5860053,21.3350941 25.0501404,19.762549 C25.7370265,17.7681194 27.2966077,16.1636613 29.328356,15.3701065 C29.4468919,15.3292662 29.5650506,15.2908092 29.6833184,15.2545769 C31.0288354,14.8423667 32.2046601,14.7194704 35.1630683,14.6122469 C35.3938999,14.6038807 35.5835008,14.5972408 36.0306872,14.5817517 L45.7459258,14.2452473 C49.8296207,14.1038013 50.878451,14.1382208 52.4790929,14.5947947 C54.5045147,15.2753643 56.0727936,16.8492146 56.7675973,18.9121696 C56.8004197,19.026648 56.8310435,19.1407937 56.8595833,19.2550334 C57.2283446,20.7311141 57.2602337,21.774609 57.1586648,25.6922128 L56.2229544,61.783389 C56.1695128,63.8446758 54.5901287,65.4779647 52.6719485,65.405639 C50.7622983,65.3336348 49.2612524,63.608667 49.2933875,61.5687285 L49.5310069,46.4846245 C49.554719,44.9793755 48.4250975,43.7654782 47.0189518,43.758181 C45.6095244,43.7508669 44.4522669,44.9446032 44.4442223,46.4349398 L44.3635213,61.3854767 C44.3525339,63.4209932 42.7995502,65.0333962 40.8793126,64.9609929 C38.9760381,64.8892292 37.4440593,63.197939 37.4337384,61.1915236 L37.3575209,46.3745537 C37.3499296,44.898785 36.1910221,43.7019901 34.7785592,43.6946602 C33.3712991,43.6873573 32.247668,44.8509148 32.2707359,46.303785 L32.5038719,60.9871877 C32.5357845,62.997109 31.0090745,64.5888316 29.0866767,64.5163468 C27.1897439,64.4448222 25.6271988,62.7872741 25.5743176,60.8146985 L25.0239646,40.2853933 Z M26.5739585,60.7879 C26.6129837,62.2436214 27.7651188,63.4658064 29.1243554,63.5170569 C30.4588728,63.5673754 31.5270309,62.4537314 31.5039979,61.0030632 L31.270862,46.3196605 C31.2389809,44.3117223 32.810431,42.6844332 34.7837486,42.6946736 C36.7517476,42.7048865 38.3471324,44.3524282 38.3575076,46.3694099 L38.4337252,61.1863797 C38.441363,62.6712046 39.5640963,63.9106915 40.9169912,63.961703 C42.2536688,64.012103 43.3555037,62.8681103 43.3635359,61.3800789 L43.4442368,46.429542 C43.455213,44.396108 45.052991,42.7479653 47.0241412,42.7581945 C48.9984574,42.7684401 50.5631838,44.4499035 50.5308828,46.5003755 L50.2932635,61.5844795 C50.2694096,63.0987247 51.3631079,64.355578 52.7096271,64.4063491 C54.0483621,64.4568266 55.183747,63.2826907 55.2232903,61.7574714 L56.1590007,25.6662952 C56.2579656,21.8491317 56.227449,20.8505512 55.8894008,19.4974088 C55.8636488,19.3943283 55.8359972,19.2912611 55.8131544,19.2096798 C55.2248025,17.4641884 53.888769,16.1234085 52.1828414,15.5496202 C50.7439525,15.1396932 49.7512468,15.1071156 45.7805418,15.244648 L36.0653032,15.5811524 C35.6186648,15.5966225 35.4293975,15.6032507 35.1992882,15.6115907 C32.3261205,15.7157248 31.2117833,15.8321945 29.9762387,16.2107137 C29.8690109,16.2435638 29.7617952,16.2784593 29.6732241,16.3085366 C27.9318289,16.9890679 26.5862086,18.3734085 26.0024811,20.066755 C25.5862371,21.4786437 25.5459404,22.4407004 25.6488812,26.2806041 L25.9008529,35.679672 L26.0236055,40.2585947 L26.5739585,60.7879 Z"/>
    <circle cx="40.643" cy="31.619" r="7.807" fill="#FFF"/>
    <path fill="#ECECEC" d="M34.3236011,27.0334467 C33.9564941,27.938746 33.7543054,28.9285396 33.7543054,29.9655568 C33.7543054,34.2773092 37.2496713,37.7726751 41.5614236,37.7726751 C44.1597602,37.7726751 46.461628,36.5033413 47.8807617,34.5509391 C46.7214965,37.4097297 43.9176742,39.4259472 40.6429391,39.4259472 C36.3311868,39.4259472 32.8358209,35.9305813 32.8358209,31.6188289 C32.8358209,29.9054131 33.3877846,28.3209154 34.3236011,27.0334467 Z"/>
    <circle cx="42.48" cy="33.456" r="3.123" fill="#000"/>
    <circle cx="43.123" cy="32.17" r="1" fill="#FFF"/>
  </g>
</svg>
